<?xml version="1.0" encoding="UTF-8"?> <svg xmlns="http://www.w3.org/2000/svg" width="696" height="619" viewBox="0 0 696 619" fill="none"> <path fill-rule="evenodd" clip-rule="evenodd" d="M350.815 0.552734C204.016 0.552734 85.0049 119.58 85.0049 266.409C85.0049 413.237 204.016 532.264 350.815 532.264C497.619 532.264 616.626 413.237 616.626 266.409C616.626 119.58 497.619 0.552734 350.815 0.552734ZM350.479 435.043L216.219 346.41V294.155L350.479 383.205L449.15 318.609L418.425 298.856L356.356 339.932L317.794 314.535L419.682 247.434L491.056 294.988V342.021L350.479 435.043ZM351.152 97.7737L485.412 186.404V238.663L351.152 149.613L252.48 214.205L283.205 233.958L345.279 192.885L383.841 218.282L281.95 285.38L210.579 237.826V190.793L351.152 97.7737Z" fill="#E94E36"></path> <path fill-rule="evenodd" clip-rule="evenodd" d="M15.2565 293.436C13.7895 297.624 12.5996 303.904 13.4454 310.111C14.3581 316.783 17.605 319.94 21.7959 319.371C25.8088 318.816 27.6821 315.458 29.3891 307.352C31.6575 296.16 36.6216 288.392 45.9671 287.115C56.9429 285.619 66.5797 293.638 68.6476 308.803C69.6328 316.055 68.8345 321.602 67.6416 325.654L55.4651 324.014C56.35 321.266 57.5427 316.436 56.6865 310.143C55.8259 303.845 52.5477 301.184 49.214 301.635C45.1067 302.197 43.792 306.072 41.7731 314.799C39.1231 326.723 33.9401 332.867 24.8756 334.103C14.0982 335.574 3.81267 328.52 1.40451 310.874C0.40544 303.53 1.32193 296.021 2.83024 292.121L15.2565 293.436Z" fill="#6E7071"></path> <path fill-rule="evenodd" clip-rule="evenodd" d="M15.0762 369.996L40.2436 361.61L70.0619 330.082L75.3493 345.956L62.6771 357.175C58.847 360.576 55.9886 362.953 52.4957 365.839L52.5547 366.013C56.842 366.107 60.8875 366.388 65.8721 366.749L82.7105 368.025L87.9067 383.618L45.3215 375.325L19.6996 383.857L15.0762 369.996Z" fill="#6E7071"></path> <path fill-rule="evenodd" clip-rule="evenodd" d="M33.1191 418.696L89.2126 386.193L97.8018 401.008L83.988 424.57C80.0125 431.322 74.9551 438.705 70.0669 444.874L70.2165 445.117C77.1402 439.992 84.5742 435.361 92.9768 430.489L109.374 420.99L116.122 432.636L60.0281 465.14L52.313 451.827L67.0108 427.297C71.0702 420.493 76.1862 412.642 81.1718 406.081L80.9425 405.879C73.734 410.512 65.9253 415.261 56.7676 420.559L39.8767 430.354L33.1191 418.696Z" fill="#6E7071"></path> <path fill-rule="evenodd" clip-rule="evenodd" d="M120 494.218L104.244 476.276L92.6712 486.449L110.266 506.482L101.222 514.424L73.9141 483.319L122.664 440.502L149.08 470.596L140.043 478.532L123.34 459.515L113.211 468.4L128.96 486.338L120 494.218Z" fill="#6E7071"></path> <path fill-rule="evenodd" clip-rule="evenodd" d="M149.189 508.695L153.715 512.278C159.45 516.814 165.122 516.639 168.642 512.185C172.344 507.501 171.029 502.657 165.805 498.4C163.013 496.19 161.25 495.156 160.303 494.646L149.189 508.695ZM155.117 477.777C159.297 480.098 165.16 484.019 171.279 488.849C178.823 494.833 183.212 500.145 184.561 505.877C185.668 510.679 184.52 515.554 180.818 520.22C175.678 526.715 167.546 527.524 161.92 525.643L161.739 525.868C164.146 530.112 163.425 535.063 161 540.767C158.048 547.758 154.375 555.648 153.802 558.385L142.032 549.073C142.33 546.977 144.412 541.867 147.86 534.403C151.523 526.997 150.704 523.52 146.087 519.742L142.611 516.99L126.782 536.996L115.391 527.978L155.117 477.777Z" fill="#6E7071"></path> <path fill-rule="evenodd" clip-rule="evenodd" d="M218.953 590.054C214.218 589.384 205.612 587.41 197.962 583.545C187.39 578.206 181.083 571.683 178.36 563.831C175.549 556.156 176.444 547.114 180.83 538.649C190.63 519.441 210.201 515.514 229.19 525.108C236.669 528.878 241.696 533.254 243.833 536.057L235.792 545.158C233.301 542.174 229.916 539.065 223.556 535.842C212.64 530.326 201.261 532.352 194.924 544.911C188.891 556.857 192.818 567.686 203.558 573.105C206.569 574.625 209.147 575.496 210.441 575.51L216.56 563.38L207.617 558.87L212.782 548.642L234.355 559.525L218.953 590.054Z" fill="#6E7071"></path> <path fill-rule="evenodd" clip-rule="evenodd" d="M252.998 603.956L259.829 578.313L249.891 536.07L266.053 540.379L268.456 557.137C269.191 562.21 269.601 565.898 270.09 570.408L270.27 570.451C272.709 566.918 275.154 563.699 278.201 559.729L288.524 546.361L304.406 550.601L274.069 581.615L267.121 607.713L252.998 603.956Z" fill="#6E7071"></path> <path fill-rule="evenodd" clip-rule="evenodd" d="M365.402 582.847C366.662 583.051 368.209 583.051 370.325 582.902C378.092 582.378 382.629 578.111 382.186 571.484C381.787 565.537 377.409 562.262 370.111 562.748C367.134 562.963 365.15 563.379 364.102 563.74L365.402 582.847ZM348.908 554.438C353.365 553.366 359.669 552.36 368.594 551.756C377.624 551.152 384.174 552.44 388.735 555.607C393.083 558.601 396.235 563.781 396.666 570.127C397.079 576.459 395.337 581.976 391.739 585.893C387.07 590.928 379.823 593.543 371.186 594.133C369.253 594.255 367.523 594.283 366.169 594.175L367.738 617.324L353.234 618.302L348.908 554.438Z" fill="#6E7071"></path> <path fill-rule="evenodd" clip-rule="evenodd" d="M416.384 545.569L423.069 569.564L446.332 563.096L439.65 539.087L453.738 535.17L471.111 597.636L457.027 601.553L449.752 575.413L426.503 581.894L433.774 608.021L419.593 611.966L402.217 549.516L416.384 545.569Z" fill="#6E7071"></path> <path fill-rule="evenodd" clip-rule="evenodd" d="M508.061 549.448L498.052 539.196C495.236 536.34 491.962 532.635 489.304 529.696L489.144 529.776C490.095 533.628 491.545 538.401 492.364 542.214L495.42 556.169L508.061 549.448ZM498.684 566.841L502.413 583.692L488.995 590.82L476.102 524.287L493.089 515.283L541.214 563.098L527.286 570.488L515.075 558.129L498.684 566.841Z" fill="#6E7071"></path> <path fill-rule="evenodd" clip-rule="evenodd" d="M544.915 514.786L549.37 511.108C555.006 506.456 556.027 500.883 552.415 496.508C548.616 491.908 543.6 492.174 538.341 496.387C535.605 498.646 534.224 500.159 533.526 500.981L544.915 514.786ZM515.963 502.507C519.103 498.913 524.164 494 530.172 489.035C537.592 482.915 543.694 479.747 549.588 479.629C554.524 479.549 559.031 481.696 562.825 486.297C568.088 492.671 567.176 500.79 564.158 505.9L564.331 506.119C568.983 504.655 573.666 506.4 578.727 509.967C584.937 514.317 591.889 519.563 594.435 520.705L582.859 530.261C580.885 529.521 576.327 526.409 569.764 521.482C563.284 516.344 559.731 516.41 555.058 520.14L551.649 522.947L567.873 542.615L556.672 551.865L515.963 502.507Z" fill="#6E7071"></path> <path fill-rule="evenodd" clip-rule="evenodd" d="M622.625 448.403C616.267 443.892 608.618 438.389 601.132 432.648L600.958 432.877C606.297 439.518 611.986 447.275 616.492 453.878L631.763 475.522L624.8 484.594L600.677 474.823C593.361 471.889 584.696 468.02 577.036 464.103L576.929 464.249C583.638 469.872 591.391 476.194 597.51 481.479L616.347 497.38L608.097 508.145L559.178 465.432L571.052 449.93L592.088 458.063C599.269 461.018 606.9 464.331 613.81 467.808L613.988 467.576C609.142 461.567 603.695 454.603 599.255 448.538L586.375 429.938L598.02 414.748L651.605 451.356L642.898 462.736L622.625 448.403Z" fill="#6E7071"></path> <path fill-rule="evenodd" clip-rule="evenodd" d="M679.9 386.663C680.022 389.668 678.853 395.774 675.624 402.967C666.43 423.392 649.002 428.197 632.178 420.626C612.026 411.558 607.263 392.138 615.315 374.252C618.423 367.327 622.18 362.713 624.476 360.885L633.856 368.375C631.495 370.589 628.757 373.875 626.624 378.614C621.861 389.213 624.542 400.337 637.693 406.242C649.526 411.571 660.124 407.904 665.479 395.99C667.301 391.948 668.428 387.093 668.56 383.992L679.9 386.663Z" fill="#6E7071"></path> <path fill-rule="evenodd" clip-rule="evenodd" d="M658.677 351.567C671.072 354.337 681.107 350.46 683.241 340.877C685.402 331.205 677.43 323.606 665.129 320.862C653.765 318.329 642.793 321.587 640.59 331.451C638.429 341.124 646.373 348.823 658.677 351.567V351.567ZM668.04 305.633C688.798 310.269 698.577 325.66 694.446 344.163C690.248 362.951 673.611 370.775 655.576 366.75C636.607 362.507 625.136 347.231 629.305 328.54C633.642 309.096 650.574 301.734 668.04 305.633Z" fill="#6E7071"></path> </svg> 